<svg width="12" height="46" viewBox="0 0 12 46" fill="none" xmlns="http://www.w3.org/2000/svg">
<path d="M4 40.5001C4 40.8956 3.8827 41.2823 3.66294 41.6112C3.44318 41.9401 3.13082 42.1964 2.76537 42.3478C2.39992 42.4992 1.99778 42.5388 1.60982 42.4616C1.22186 42.3845 0.865493 42.194 0.585787 41.9143C0.306082 41.6346 0.115601 41.2782 0.0384303 40.8902C-0.0387401 40.5023 0.000866562 40.1001 0.152242 39.7347C0.303617 39.3692 0.559963 39.0569 0.888861 38.8371C1.21776 38.6174 1.60444 38.5001 2 38.5001C2.53043 38.5001 3.03914 38.7108 3.41421 39.0858C3.78929 39.4609 4 39.9696 4 40.5001ZM2 31.5001C1.60444 31.5001 1.21776 31.6174 0.888861 31.8371C0.559963 32.0569 0.303617 32.3692 0.152242 32.7347C0.000866562 33.1001 -0.0387401 33.5023 0.0384303 33.8902C0.115601 34.2782 0.306082 34.6346 0.585787 34.9143C0.865493 35.194 1.22186 35.3845 1.60982 35.4616C1.99778 35.5388 2.39992 35.4992 2.76537 35.3478C3.13082 35.1964 3.44318 34.9401 3.66294 34.6112C3.8827 34.2823 4 33.8956 4 33.5001C4 32.9696 3.78929 32.4609 3.41421 32.0858C3.03914 31.7108 2.53043 31.5001 2 31.5001ZM2 24.5001C1.60444 24.5001 1.21776 24.6174 0.888861 24.8371C0.559963 25.0569 0.303617 25.3692 0.152242 25.7347C0.000866562 26.1001 -0.0387401 26.5023 0.0384303 26.8902C0.115601 27.2782 0.306082 27.6346 0.585787 27.9143C0.865493 28.194 1.22186 28.3845 1.60982 28.4616C1.99778 28.5388 2.39992 28.4992 2.76537 28.3478C3.13082 28.1964 3.44318 27.9401 3.66294 27.6112C3.8827 27.2823 4 26.8956 4 26.5001C4 25.9696 3.78929 25.4609 3.41421 25.0858C3.03914 24.7108 2.53043 24.5001 2 24.5001ZM10 38.5001C9.60444 38.5001 9.21776 38.6174 8.88886 38.8371C8.55996 39.0569 8.30362 39.3692 8.15224 39.7347C8.00087 40.1001 7.96126 40.5023 8.03843 40.8902C8.1156 41.2782 8.30608 41.6346 8.58579 41.9143C8.86549 42.194 9.22186 42.3845 9.60982 42.4616C9.99778 42.5388 10.3999 42.4992 10.7654 42.3478C11.1308 42.1964 11.4432 41.9401 11.6629 41.6112C11.8827 41.2823 12 40.8956 12 40.5001C12 39.9696 11.7893 39.4609 11.4142 39.0858C11.0391 38.7108 10.5304 38.5001 10 38.5001ZM10 31.5001C9.60444 31.5001 9.21776 31.6174 8.88886 31.8371C8.55996 32.0569 8.30362 32.3692 8.15224 32.7347C8.00087 33.1001 7.96126 33.5023 8.03843 33.8902C8.1156 34.2782 8.30608 34.6346 8.58579 34.9143C8.86549 35.194 9.22186 35.3845 9.60982 35.4616C9.99778 35.5388 10.3999 35.4992 10.7654 35.3478C11.1308 35.1964 11.4432 34.9401 11.6629 34.6112C11.8827 34.2823 12 33.8956 12 33.5001C12 32.9696 11.7893 32.4609 11.4142 32.0858C11.0391 31.7108 10.5304 31.5001 10 31.5001ZM10 24.5001C9.60444 24.5001 9.21776 24.6174 8.88886 24.8371C8.55996 25.0569 8.30362 25.3692 8.15224 25.7347C8.00087 26.1001 7.96126 26.5023 8.03843 26.8902C8.1156 27.2782 8.30608 27.6346 8.58579 27.9143C8.86549 28.194 9.22186 28.3845 9.60982 28.4616C9.99778 28.5388 10.3999 28.4992 10.7654 28.3478C11.1308 28.1964 11.4432 27.9401 11.6629 27.6112C11.8827 27.2823 12 26.8956 12 26.5001C12 25.9696 11.7893 25.4609 11.4142 25.0858C11.0391 24.7108 10.5304 24.5001 10 24.5001Z" fill="#838799"/>
</svg>
